<?xml version="1.0" encoding="iso-8859-1"?>
<!-- Generator: Adobe Illustrator 19.0.0, SVG Export Plug-In . SVG Version: 6.00 Build 0)  -->
<svg version="1.1" id="Capa_1" xmlns="http://www.w3.org/2000/svg" xmlns:xlink="http://www.w3.org/1999/xlink" x="0px" y="0px"
	 viewBox="0 0 512 512" style="enable-background:new 0 0 512 512;" xml:space="preserve">
<path id="SVGCleanerId_0" style="fill:#F3E5B7;" d="M450.574,53.334C397.496,20.027,342.377,27.836,300.558,37.01
	c-41.819,9.175-95.144,25.157-129.404,77.625c-18.97,29.052-10.978,68.969,18.322,87.555c25.882,16.418,59.28,11.394,79.326-10.47
	c2.361-2.575,6.659-1.362,7.408,2.05l16.356,74.556c2.376,10.831,13.083,17.685,23.914,15.308l72.863-15.985
	c10.831-2.376,17.685-13.083,15.308-23.914l-16.356-74.556c-0.749-3.412,2.647-6.313,5.868-4.962
	c27.358,11.464,59.791,2.046,76.424-23.699C489.416,111.373,479.963,71.777,450.574,53.334z"/>
<g>
	<path id="SVGCleanerId_0_1_" style="fill:#F3E5B7;" d="M450.574,53.334C397.496,20.027,342.377,27.836,300.558,37.01
		c-41.819,9.175-95.144,25.157-129.404,77.625c-18.97,29.052-10.978,68.969,18.322,87.555c25.882,16.418,59.28,11.394,79.326-10.47
		c2.361-2.575,6.659-1.362,7.408,2.05l16.356,74.556c2.376,10.831,13.083,17.685,23.914,15.308l72.863-15.985
		c10.831-2.376,17.685-13.083,15.308-23.914l-16.356-74.556c-0.749-3.412,2.647-6.313,5.868-4.962
		c27.358,11.464,59.791,2.046,76.424-23.699C489.416,111.373,479.963,71.777,450.574,53.334z"/>
</g>
<path style="fill:#B37764;" d="M403.451,143.287c-3.388,0.743-7.064,0.14-10.153-1.974c-22.788-15.595-43.583-15.063-71.802-8.872
	c-37.266,8.176-50.768,20.167-61.495,38.115c-3.692,6.177-11.692,8.192-17.869,4.5c-6.177-3.692-8.192-11.692-4.5-17.869
	c16.348-27.354,38.296-41.429,78.28-50.201s65.807-5.177,92.105,12.821c5.939,4.064,7.458,12.173,3.393,18.112
	C409.459,140.769,406.578,142.601,403.451,143.287z"/>
<path style="opacity:0.15;enable-background:new    ;" d="M404.652,243.736l-5.197-23.69l0,0
	c-19.436-3.26-38.685-4.102-56.947-4.102c-3.612,0-7.269,0.038-10.952,0.115c-16.045-29.964-37.732-50.957-61.437-66.5
	c-12.761-8.367-21.323-21.864-23.079-37.021c-2.51-21.66,1.888-45.205,8.286-62.714c-30.301,11.293-61.102,29.859-83.725,64.134
	c-19.459,29.481-11.827,69.541,18.07,88.355c25.835,16.258,59.084,11.225,79.086-10.541c2.385-2.596,6.699-1.445,7.455,1.998
	l16.356,74.556c2.376,10.831,13.083,17.685,23.914,15.308l72.863-15.985C400.174,265.273,407.028,254.567,404.652,243.736z"/>
<path style="fill:#F3E5B7;" d="M314.072,231.59c-27.776-56.171-78.823-78.383-119.253-92.465
	c-40.43-14.083-94.23-28.392-150.892-1.634c-31.375,14.816-45.47,53.008-30.242,84.184c13.452,27.54,44.535,40.75,73.062,32.621
	c3.359-0.957,6.387,2.326,5.237,5.625l-25.108,72.081c-3.647,10.472,1.884,21.917,12.356,25.565l70.445,24.538
	c10.472,3.647,21.917-1.884,25.565-12.356l25.108-72.081c1.149-3.298,5.56-3.991,7.599-1.154
	c17.303,24.093,49.866,33.054,77.518,19.831C316.769,301.376,329.451,262.692,314.072,231.59z"/>
<path style="fill:#B37764;" d="M226.822,283.546c-3.275-1.141-6.092-3.58-7.616-6.999c-11.247-25.22-29.242-35.655-56.524-45.159
	c-36.029-12.55-53.812-9.406-72.349,0.268c-6.381,3.329-14.25,0.856-17.58-5.523c-3.329-6.38-0.856-14.25,5.523-17.58
	c28.252-14.742,54.321-15.239,92.977-1.774c38.656,13.465,58.773,30.051,71.752,59.154c2.93,6.573-0.021,14.275-6.594,17.206
	C233.258,284.547,229.844,284.599,226.822,283.546z"/>
<path style="opacity:0.1;enable-background:new    ;" d="M285.054,316.54c32.235-15.131,44.541-54.1,28.538-85.911
	c-2.331-4.634-4.828-9.026-7.458-13.209c-41.34,3.739-84.856,16.101-122.537,53.11c-7.673,7.536-13.789,16.495-18.146,26.258
	c-14.594-6.813-33.424-29.394-37.721-47.236c-1.27-5.272-4.096-9.995-7.803-13.954c-17.649-18.852-26.811-77.566-12.742-113.093
	c-20.217,0.518-41.439,4.715-63.079,14.903c-31.741,14.942-45.831,53.008-30.32,84.474c13.506,27.4,44.505,40.523,72.961,32.415
	c3.359-0.957,6.387,2.326,5.237,5.625l-25.108,72.081c-3.647,10.472,1.884,21.917,12.356,25.565l70.445,24.538
	c10.472,3.647,21.917-1.884,25.565-12.356l25.108-72.081c1.16-3.33,5.579-3.958,7.64-1.096
	C225.218,320.501,257.513,329.467,285.054,316.54z"/>
<path style="fill:#F3E5B7;" d="M485.54,286.695c-44.707-43.908-100.22-48.092-143.032-48.092s-98.325,4.184-143.032,48.092
	c-24.755,24.312-25.502,65.015-0.866,89.447c21.763,21.583,55.461,23.832,79.727,6.772c2.857-2.009,6.796,0.096,6.796,3.589v76.33
	c0,11.089,8.989,20.078,20.078,20.078h74.596c11.089,0,20.078-8.989,20.078-20.078v-76.33c0-3.493,3.938-5.598,6.796-3.589
	c24.266,17.06,57.964,14.811,79.727-6.772C511.042,351.71,510.295,311.008,485.54,286.695z"/>
<path style="fill:#B37764;" d="M420.235,364.461c-3.468,0-6.93-1.377-9.495-4.104c-18.917-20.117-39.343-24.052-68.234-24.052
	c-38.152,0-53.911,8.819-68.235,24.052c-4.93,5.242-13.175,5.495-18.418,0.566c-5.242-4.929-5.495-13.175-0.566-18.418
	c21.83-23.216,46.285-32.26,87.219-32.26s65.388,9.045,87.217,32.26c4.929,5.242,4.675,13.488-0.566,18.418
	C426.644,363.289,423.437,364.461,420.235,364.461z"/>
<path style="opacity:0.05;enable-background:new    ;" d="M278.335,382.914c2.857-2.009,6.796,0.096,6.796,3.589v76.33
	c0,11.089,8.989,20.078,20.078,20.078h69.19c-39.95-20.978-56.202-90.8-58.706-119.14c-0.467-5.286-3.318-10.116-7.773-13.001
	c-24.609-15.942-61.16-72.895-39.895-103.566c-23.309,6.652-46.699,18.321-67.741,38.702c-25.383,24.587-26.767,65.356-1.674,90.239
	C220.374,397.725,254.071,399.973,278.335,382.914z"/>
<g>
	<ellipse style="fill:#F298B8;" cx="287.545" cy="290.307" rx="20.279" ry="16.151"/>
	<ellipse style="fill:#F298B8;" cx="397.464" cy="290.307" rx="20.279" ry="16.151"/>
</g>
<g style="opacity:0.1;">
	<circle cx="364.411" cy="195.069" r="7.201"/>
	<circle cx="426.057" cy="84.992" r="7.201"/>
	<circle cx="467.44" cy="320.779" r="7.201"/>
	<circle cx="324.738" cy="430.229" r="7.202"/>
	<circle cx="120.68" cy="306.458" r="7.201"/>
	<circle cx="216.789" cy="187.868" r="7.202"/>
	<circle cx="277.454" cy="84.992" r="7.202"/>
</g>
<path d="M490.795,281.344c-24.517-24.079-52.023-36.813-79.742-43.433l-14.196-64.706c29.834,9.63,62.73-1.837,80.03-28.617
	c13.888-21.496,14.624-49.075,1.923-71.975c-2.01-3.623-6.575-4.931-10.197-2.921c-3.622,2.009-4.93,6.575-2.921,10.197
	c10.011,18.05,9.473,39.721-1.405,56.559c-14.44,22.354-42.712,31.123-67.225,20.852c-4.065-1.704-8.702-1.004-12.096,1.827
	c-3.419,2.851-4.95,7.319-3.998,11.66l14.026,63.932c-17.88-2.871-35.624-3.616-52.487-3.616c-6.617,0-13.372,0.121-20.216,0.432
	c-0.479-1.116-0.974-2.212-1.496-3.269c-12.95-26.19-30.64-45.346-50.396-59.946c9.376-13.115,22.295-21.881,52.704-28.552
	c26.843-5.889,45.306-6.399,65.96,7.737c4.654,3.185,10.484,4.318,15.995,3.109c5.122-1.124,9.577-4.127,12.541-8.458
	c6.394-9.342,3.993-22.144-5.347-28.536c-28.222-19.317-55.682-23.231-97.948-13.958c-39.281,8.618-62.156,22.219-79.28,47.652
	c-12.57-6.025-25.332-10.951-37.738-15.272c-7.499-2.612-15.236-5.132-23.186-7.402c0.996-2.037,2.101-4.014,3.335-5.905
	c17.727-27.147,46.407-57.216,124.732-74.4c42.894-9.41,93.224-15.17,141.301,13.445c3.56,2.118,8.163,0.949,10.281-2.609
	c2.119-3.56,0.951-8.163-2.608-10.282C398.571,13.602,344.71,19.645,298.952,29.683c-46.915,10.293-99.535,27.947-134.078,80.851
	c-2.126,3.256-3.979,6.695-5.542,10.276c-36.398-8.43-76.679-9.901-118.607,9.899c-17.021,8.038-30.394,22.93-36.687,40.858
	c-6.25,17.802-5.216,36.766,2.908,53.4c13.994,28.648,45.29,43.945,76.06,37.933l-23.212,66.635
	c-2.423,6.957-1.992,14.44,1.214,21.073c3.205,6.633,8.802,11.619,15.758,14.042l40.211,14.007c0.816,0.285,1.648,0.419,2.467,0.419
	c3.103,0,6.006-1.94,7.084-5.035c1.362-3.912-0.704-8.189-4.616-9.551L81.7,350.482c-3.172-1.105-5.724-3.379-7.187-6.405
	c-1.462-3.024-1.658-6.438-0.553-9.61l25.108-72.082c1.461-4.197,0.471-8.817-2.584-12.053c-3.035-3.214-7.554-4.461-11.793-3.252
	c-25.557,7.282-52.586-4.786-64.267-28.699c-6.351-13-7.144-27.861-2.233-41.847c4.973-14.168,15.521-25.927,28.936-32.263
	c29.32-13.844,69.499-24.441,145.223,1.935c41.866,14.583,87.985,36.285,113.831,86.449c-21.205,2.042-42.922,6.545-63.88,15.878
	c-13.913-22.484-34.334-36.91-68.582-48.839c-40.861-14.234-68.595-13.613-98.914,2.208c-10.035,5.237-13.939,17.663-8.704,27.699
	c5.237,10.035,17.664,13.939,27.699,8.703c17.117-8.933,32.771-11.553,66.412,0.165c21.622,7.532,36.657,15.362,46.936,31.404
	c-4.389,3.504-8.704,7.318-12.93,11.468c-13.43,13.189-21.159,31.651-21.205,50.652c-0.013,5.523,0.613,10.929,1.81,16.148
	l-6.666,19.137c-2.069,5.943-8.272,9.462-14.411,8.184c-4.056-0.844-8.028,1.761-8.87,5.818c-0.843,4.055,1.761,8.027,5.816,8.87
	c1.863,0.387,3.728,0.574,5.57,0.574c11.505,0,22.148-7.28,26.061-18.511l1.105-3.173c2.783,4.467,6.082,8.642,9.896,12.424
	c22.64,22.452,57.227,26.602,84.304,10.803v70.562c0,15.206,12.371,27.578,27.577,27.578h74.596
	c15.206,0,27.578-12.372,27.578-27.578v-70.562c27.075,15.8,61.665,11.648,84.304-10.803c13.144-13.036,20.358-30.606,20.313-49.472
	C511.953,312.995,504.225,294.532,490.795,281.344z M257.997,159.884c-3.144-1.968-6.323-3.843-9.529-5.629
	c14.747-20.972,34.847-32.436,69.05-39.94c38.194-8.379,61.573-5.212,86.261,11.685c2.515,1.722,3.161,5.169,1.44,7.685
	c-0.799,1.166-1.998,1.975-3.377,2.278c-1.507,0.33-3.037,0.033-4.309-0.837c-24.915-17.051-48.182-16.472-77.647-10.009
	C284.944,132.781,269.108,144.227,257.997,159.884z M165.148,224.306c-38.421-13.383-58.441-9.655-78.286,0.702
	c-2.7,1.41-6.05,0.359-7.46-2.343c-1.41-2.703-0.358-6.05,2.344-7.461c26.523-13.839,50.112-14.204,87.039-1.341
	c30.013,10.454,47.994,22.747,60.033,41.433c-3.192,1.791-6.358,3.716-9.495,5.775C206.872,242.011,189.07,232.638,165.148,224.306z
	 M481.124,370.817c-18.897,18.741-48.391,21.248-70.13,5.962c-3.605-2.535-8.282-2.845-12.207-0.808
	c-3.95,2.051-6.405,6.088-6.405,10.533v76.33c0,6.935-5.642,12.577-12.577,12.577h-74.596c-6.935,0-12.576-5.642-12.576-12.577
	v-76.33c0-4.445-2.454-8.481-6.405-10.533c-1.723-0.895-3.59-1.336-5.448-1.336c-2.375,0-4.734,0.722-6.758,2.144
	c-21.74,15.285-51.234,12.778-70.131-5.962c-6.738-6.682-11.466-14.911-13.922-23.962c-0.049-0.221-0.109-0.44-0.178-0.655
	c-1.174-4.55-1.786-9.3-1.774-14.166c0.036-15.015,6.129-29.59,16.714-39.985c4.603-4.521,9.657-9.061,15.428-13.435
	c0.079-0.038,0.16-0.065,0.238-0.106c0.815-0.423,1.513-0.98,2.096-1.624c5.525-4.006,11.698-7.848,18.735-11.377
	c0.534-0.146,1.061-0.346,1.57-0.619c0.337-0.18,0.647-0.389,0.945-0.61c22.351-10.659,53.16-18.173,98.766-18.173
	c44.998,0,96.556,5.458,137.778,45.943c10.585,10.396,16.677,24.97,16.714,39.984C497.035,346.855,491.397,360.629,481.124,370.817z
	 M385.647,281.698c4.143,0,7.501-3.358,7.501-7.501v-7.162c0-4.142-3.357-7.501-7.501-7.501s-7.501,3.358-7.501,7.501v7.162
	C378.147,278.34,381.505,281.698,385.647,281.698z M342.508,287.198c6.527,0,12.733-2.826,17.028-7.754
	c2.722-3.123,2.395-7.861-0.727-10.583c-3.123-2.721-7.86-2.396-10.583,0.727c-1.444,1.658-3.529,2.609-5.719,2.609
	c-2.189,0-4.273-0.951-5.717-2.608c-2.723-3.124-7.46-3.45-10.583-0.728c-3.123,2.721-3.449,7.459-0.729,10.583
	C329.772,284.37,335.979,287.198,342.508,287.198z M299.367,281.698c4.142,0,7.501-3.358,7.501-7.501v-7.162
	c0-4.142-3.358-7.501-7.501-7.501c-4.143,0-7.501,3.358-7.501,7.501v7.162C291.866,278.34,295.223,281.698,299.367,281.698z
	 M342.509,302.745c-43.27,0-69.255,9.708-92.684,34.623c-7.754,8.247-7.354,21.265,0.893,29.021
	c8.248,7.754,21.266,7.352,29.021-0.893c13.227-14.067,27.147-21.69,62.77-21.69c27.48,0,45.623,3.456,62.77,21.691
	c3.864,4.109,9.316,6.466,14.957,6.466c5.245,0,10.24-1.98,14.061-5.573c8.247-7.754,8.648-20.773,0.893-29.021
	C411.762,312.452,385.775,302.745,342.509,302.745z M424.021,355.459c-1.029,0.968-2.374,1.501-3.785,1.501
	c-1.542,0-2.974-0.619-4.029-1.742c-20.685-21.996-43.534-26.414-73.697-26.414c-40.689,0-58.365,10.107-73.697,26.414
	c-2.09,2.221-5.598,2.328-7.816,0.242c-2.222-2.088-2.329-5.595-0.241-7.816c20.494-21.795,42.652-29.898,81.755-29.898
	c39.102,0,61.259,8.104,81.753,29.898C426.349,349.865,426.242,353.37,424.021,355.459z"/>
<g>
</g>
<g>
</g>
<g>
</g>
<g>
</g>
<g>
</g>
<g>
</g>
<g>
</g>
<g>
</g>
<g>
</g>
<g>
</g>
<g>
</g>
<g>
</g>
<g>
</g>
<g>
</g>
<g>
</g>
</svg>
